<svg width="60" height="127" viewBox="0 0 60 127" fill="none" xmlns="http://www.w3.org/2000/svg">
<rect x="50" y="22" width="10" height="55" fill="black"/>
<rect y="53" width="10" height="30" fill="black"/>
<rect y="57" width="10" height="60" transform="rotate(-90 0 57)" fill="black"/>
<rect y="92" width="10" height="60" transform="rotate(-90 0 92)" fill="black"/>
<rect y="22" width="10" height="55" fill="black"/>
<rect y="127" width="10" height="60" transform="rotate(-90 0 127)" fill="black"/>
<rect x="50" y="82" width="10" height="43" fill="black"/>
<path d="M50 12C50 9.23858 52.2386 7 55 7C57.7614 7 60 9.23858 60 12C60 14.7614 57.7614 17 55 17C52.2386 17 50 14.7614 50 12Z" fill="black"/>
</svg>
